<svg width="239" height="235" viewBox="0 0 239 235" fill="none" xmlns="http://www.w3.org/2000/svg">
<path d="M119.167 234.167C102.682 234.167 87.1903 231.091 72.6917 224.941C58.1931 218.798 45.5813 210.457 34.8563 199.92C24.1313 189.382 15.6426 176.991 9.39033 162.746C3.13011 148.501 0 133.28 0 117.083C0 100.887 3.13011 85.666 9.39033 71.4208C15.6426 57.1757 24.1313 44.7844 34.8563 34.2469C45.5813 23.7094 58.1931 15.3652 72.6917 9.21446C87.1903 3.07149 102.682 0 119.167 0C135.651 0 151.143 3.07149 165.642 9.21446C180.14 15.3652 192.752 23.7094 203.477 34.2469C214.202 44.7844 222.691 57.1757 228.943 71.4208C235.203 85.666 238.333 100.887 238.333 117.083C238.333 133.28 235.203 148.501 228.943 162.746C222.691 176.991 214.202 189.382 203.477 199.92C192.752 210.457 180.14 218.798 165.642 224.941C151.143 231.091 135.651 234.167 119.167 234.167ZM119.167 210.75C145.781 210.75 168.323 201.676 186.794 183.528C205.265 165.38 214.5 143.232 214.5 117.083C214.5 90.9347 205.265 68.7865 186.794 50.6385C168.323 32.4906 145.781 23.4167 119.167 23.4167C92.5528 23.4167 70.0104 32.4906 51.5396 50.6385C33.0687 68.7865 23.8333 90.9347 23.8333 117.083C23.8333 143.232 33.0687 165.38 51.5396 183.528C70.0104 201.676 92.5528 210.75 119.167 210.75Z" fill="#F8F8F8"/>
</svg>
