<svg width="143" height="142" viewBox="0 0 143 142" fill="none" xmlns="http://www.w3.org/2000/svg">
<path d="M116.15 5.29191C117.536 3.82998 119.203 2.66009 121.05 1.85141C122.897 1.04273 124.888 0.611652 126.905 0.58367C128.923 0.555688 130.925 0.931366 132.794 1.6885C134.663 2.44563 136.361 3.56885 137.788 4.99176C139.214 6.41468 140.34 8.10841 141.1 9.97285C141.859 11.8373 142.235 13.8346 142.207 15.8467C142.179 17.8588 141.747 19.8449 140.936 21.6876C140.126 23.5302 138.953 25.1921 137.487 26.5749L93.2637 70.6864C93.2052 70.7447 93.1587 70.8139 93.127 70.8902C93.0953 70.9664 93.079 71.0481 93.079 71.1306C93.079 71.2131 93.0953 71.2948 93.127 71.371C93.1587 71.4472 93.2052 71.5164 93.2637 71.5747L137.487 115.686C138.907 117.08 140.037 118.74 140.811 120.572C141.585 122.403 141.988 124.369 141.996 126.356C142.004 128.344 141.618 130.313 140.86 132.151C140.101 133.989 138.985 135.658 137.577 137.064C136.168 138.469 134.494 139.583 132.652 140.34C130.81 141.097 128.836 141.482 126.843 141.474C124.851 141.467 122.88 141.065 121.044 140.294C119.207 139.522 117.543 138.396 116.145 136.979L71.9219 92.8677C71.8634 92.8093 71.7941 92.7629 71.7177 92.7313C71.6412 92.6997 71.5593 92.6834 71.4766 92.6834C71.3939 92.6834 71.312 92.6997 71.2356 92.7313C71.1592 92.7629 71.0898 92.8093 71.0314 92.8677L26.8081 136.979C25.4109 138.396 23.7463 139.523 21.9104 140.295C20.0744 141.067 18.1034 141.469 16.111 141.477C14.1186 141.485 12.1442 141.1 10.3018 140.344C8.45944 139.587 6.78546 138.474 5.37644 137.069C3.96742 135.664 2.85126 133.994 2.09232 132.157C1.33339 130.319 0.946709 128.35 0.954586 126.362C0.962463 124.375 1.36474 122.409 2.13822 120.577C2.9117 118.746 4.04106 117.085 5.46117 115.691L49.6845 71.5797C49.743 71.5214 49.7895 71.4522 49.8212 71.376C49.8529 71.2998 49.8692 71.2181 49.8692 71.1356C49.8692 71.0531 49.8529 70.9714 49.8212 70.8952C49.7895 70.819 49.743 70.7497 49.6845 70.6915L5.46117 26.5799C2.66838 23.7491 1.11014 19.9322 1.12588 15.9605C1.14162 11.9889 2.73007 8.18443 5.54522 5.37573C8.36037 2.56702 12.1741 0.981691 16.1558 0.965053C20.1375 0.948414 23.9644 2.50182 26.8031 5.28689L71.0263 49.3985C71.0847 49.4569 71.1542 49.5032 71.2306 49.5349C71.307 49.5665 71.3889 49.5828 71.4716 49.5828C71.5543 49.5828 71.6362 49.5665 71.7126 49.5349C71.789 49.5032 71.8584 49.4569 71.9168 49.3985L116.14 5.28689L116.15 5.29191Z" fill="#F8F8F8"/>
</svg>
