<svg width="90" height="91" viewBox="0 0 90 91" fill="none" xmlns="http://www.w3.org/2000/svg">
<path d="M45 79.625C35.5625 79.625 27.5775 76.3224 21.045 69.7174C14.515 63.1148 11.25 55.0423 11.25 45.5C11.25 36.7792 14.0625 29.211 19.6875 22.7955C25.3125 16.3825 32.5 12.6389 41.25 11.5646C42.8125 11.375 44.0312 11.9437 44.9062 13.2708C45.7812 14.5979 45.75 15.9882 44.8125 17.4417C43.75 19.0847 42.9525 20.8226 42.42 22.6552C41.89 24.4878 41.625 26.4153 41.625 28.4375C41.625 34.125 43.5938 38.9594 47.5312 42.9406C51.4687 46.9219 56.25 48.9125 61.875 48.9125C63.8125 48.9125 65.735 48.6281 67.6425 48.0594C69.5475 47.4906 71.25 46.7007 72.75 45.6896C74.0625 44.8048 75.4062 44.7568 76.7812 45.5455C78.1562 46.3367 78.75 47.5854 78.5625 49.2917C77.6875 58.0125 74.0162 65.2482 67.5487 70.9989C61.0787 76.7496 53.5625 79.625 45 79.625Z" fill="white"/>
</svg>
